HIERARCHY
ROOT HMD
{
	OFFSET 0.0 0.0 0.0
	CHANNELS 6 Xposition Yposition Zposition Zrotation Xrotation Yrotation
	JOINT Head
	{
		OFFSET 0.0 0.0 10.0
		CHANNELS 3 Zrotation Xrotation Yrotation
		JOINT Neck
		{
			OFFSET 0.0 -10.0 0.0
			CHANNELS 3 Zrotation Xrotation Yrotation
			JOINT Chest
			{
				OFFSET 0.0 -32.0 0.0
				CHANNELS 3 Zrotation Xrotation Yrotation
				JOINT Waist
				{
					OFFSET 0.0 -20.000002 0.0
					CHANNELS 3 Zrotation Xrotation Yrotation
					JOINT Hip
					{
						OFFSET 0.0 -4.0 0.0
						CHANNELS 3 Zrotation Xrotation Yrotation
						JOINT Left-Hip
						{
							OFFSET -13.0 0.0 0.0
							CHANNELS 3 Zrotation Xrotation Yrotation
							JOINT Left-Knee
							{
								OFFSET 0.0 -42.0 0.0
								CHANNELS 3 Zrotation Xrotation Yrotation
								JOINT Left-Ankle
								{
									OFFSET 0.0 -50.0 5.0
									CHANNELS 3 Zrotation Xrotation Yrotation
									JOINT Left-Foot
									{
										OFFSET 0.0 0.0 -5.0
										CHANNELS 3 Zrotation Xrotation Yrotation
										End Site
										{
											OFFSET 0.0 0.0 -0.0
										}
									}
								}
							}
						}
						JOINT Right-Hip
						{
							OFFSET 13.0 0.0 0.0
							CHANNELS 3 Zrotation Xrotation Yrotation
							JOINT Right-Knee
							{
								OFFSET 0.0 -42.0 0.0
								CHANNELS 3 Zrotation Xrotation Yrotation
								JOINT Right-Ankle
								{
									OFFSET 0.0 -50.0 5.0
									CHANNELS 3 Zrotation Xrotation Yrotation
									JOINT Right-Foot
									{
										OFFSET 0.0 0.0 -5.0
										CHANNELS 3 Zrotation Xrotation Yrotation
										End Site
										{
											OFFSET 0.0 0.0 -0.0
										}
									}
								}
							}
						}
					}
				}
			}
		}
	}
}
MOTION
Frames: 28                
Frame Time: 0.01
0.0 180.0 0.0 -0.0 0.0 -0.0 -0.0 0.0 -0.0 -156.74905 -66.84976 46.38185 4.268868E-7 2.5613203E-6 -2.5613203E-6 90.88023 64.17905 -47.64426 -121.89694 25.548882 -38.426426 10.154432 13.760886 -27.855198 0.0 -8.537737E-7 0.0 0.0 -8.537737E-7 0.0 0.0 -8.537737E-7 0.0 -69.33173 -30.87556 41.76684 -0.0 0.0 -0.0 -94.7358 4.4677267 -93.024086 -1.5266662E-13 3.4150944E-6 5.1226416E-6
0.0 180.0 0.0 -0.0 0.0 -0.0 -0.0 0.0 -0.0 -156.74905 -66.84976 46.38185 4.268868E-7 2.5613203E-6 -2.5613203E-6 90.88023 64.17905 -47.64426 -121.89694 25.548882 -38.426426 10.154432 13.760886 -27.855198 0.0 -8.537737E-7 0.0 0.0 -8.537737E-7 0.0 0.0 -8.537737E-7 0.0 -69.33173 -30.87556 41.76684 -0.0 0.0 -0.0 -94.7358 4.4677267 -93.024086 -1.5266662E-13 3.4150944E-6 5.1226416E-6
0.0 180.0 0.0 -0.0 0.0 -0.0 -0.0 0.0 -0.0 -156.74905 -66.84976 46.38185 4.268868E-7 2.5613203E-6 -2.5613203E-6 90.89906 64.18551 -47.63731 -121.89951 25.574686 -38.422222 10.154432 13.760886 -27.855198 0.0 -8.537737E-7 0.0 0.0 -8.537737E-7 0.0 0.0 -8.537737E-7 0.0 -69.33173 -30.87556 41.76684 -0.0 0.0 -0.0 -94.7358 4.4677267 -93.024086 -1.5266662E-13 3.4150944E-6 5.1226416E-6
0.0 180.0 0.0 -0.0 0.0 -0.0 -0.0 0.0 -0.0 -156.74905 -66.84976 46.38185 4.268868E-7 2.5613203E-6 -2.5613203E-6 90.89906 64.18551 -47.63731 -121.89951 25.574686 -38.422222 10.154432 13.760886 -27.855198 0.0 -8.537737E-7 0.0 0.0 -8.537737E-7 0.0 0.0 -8.537737E-7 0.0 -69.33173 -30.87556 41.76684 -0.0 0.0 -0.0 -94.7358 4.4677267 -93.024086 -1.5266662E-13 3.4150944E-6 5.1226416E-6
0.0 180.0 0.0 -0.0 0.0 -0.0 -0.0 0.0 -0.0 -156.74905 -66.84976 46.38185 4.268868E-7 2.5613203E-6 -2.5613203E-6 90.89906 64.18551 -47.63731 -121.89951 25.574686 -38.422222 10.154432 13.760886 -27.855198 0.0 -8.537737E-7 0.0 0.0 -8.537737E-7 0.0 0.0 -8.537737E-7 0.0 -69.33173 -30.87556 41.76684 -0.0 0.0 -0.0 -94.7358 4.4677267 -93.024086 -1.5266662E-13 3.4150944E-6 5.1226416E-6
0.0 180.0 0.0 -0.0 0.0 -0.0 -0.0 0.0 -0.0 -156.74905 -66.84976 46.38185 4.268868E-7 2.5613203E-6 -2.5613203E-6 90.89906 64.18551 -47.63731 -121.89951 25.574686 -38.422222 10.154432 13.760886 -27.855198 0.0 -8.537737E-7 0.0 0.0 -8.537737E-7 0.0 0.0 -8.537737E-7 0.0 -69.33173 -30.87556 41.76684 -0.0 0.0 -0.0 -94.7358 4.4677267 -93.024086 -1.5266662E-13 3.4150944E-6 5.1226416E-6
0.0 180.0 0.0 -0.0 0.0 -0.0 -0.0 0.0 -0.0 -156.74905 -66.84976 46.38185 4.268868E-7 2.5613203E-6 -2.5613203E-6 90.89906 64.18551 -47.63731 -121.89951 25.574686 -38.422222 10.154432 13.760886 -27.855198 0.0 -8.537737E-7 0.0 0.0 -8.537737E-7 0.0 0.0 -8.537737E-7 0.0 -69.33173 -30.87556 41.76684 -0.0 0.0 -0.0 -94.7358 4.4677267 -93.024086 -1.5266662E-13 3.4150944E-6 5.1226416E-6
0.0 180.0 0.0 -0.0 0.0 -0.0 -0.0 0.0 -0.0 -156.74905 -66.84976 46.38185 4.268868E-7 2.5613203E-6 -2.5613203E-6 90.89906 64.18551 -47.63731 -121.89951 25.574686 -38.422222 10.154432 13.760886 -27.855198 0.0 -8.537737E-7 0.0 0.0 -8.537737E-7 0.0 0.0 -8.537737E-7 0.0 -69.33173 -30.87556 41.76684 -0.0 0.0 -0.0 -94.7358 4.4677267 -93.024086 -1.5266662E-13 3.4150944E-6 5.1226416E-6
0.0 180.0 0.0 -0.0 0.0 -0.0 -0.0 0.0 -0.0 -156.74905 -66.84976 46.38185 4.268868E-7 2.5613203E-6 -2.5613203E-6 90.89906 64.18551 -47.63731 -121.89951 25.574686 -38.422222 10.154432 13.760886 -27.855198 0.0 -8.537737E-7 0.0 0.0 -8.537737E-7 0.0 0.0 -8.537737E-7 0.0 -69.33173 -30.87556 41.76684 -0.0 0.0 -0.0 -94.7358 4.4677267 -93.024086 -1.5266662E-13 3.4150944E-6 5.1226416E-6
0.0 180.0 0.0 -0.0 0.0 -0.0 -0.0 0.0 -0.0 -156.74905 -66.84976 46.38185 4.268868E-7 2.5613203E-6 -2.5613203E-6 90.89906 64.18551 -47.63731 -121.89951 25.574686 -38.422222 10.154432 13.760886 -27.855198 0.0 -8.537737E-7 0.0 0.0 -8.537737E-7 0.0 0.0 -8.537737E-7 0.0 -69.33173 -30.87556 41.76684 -0.0 0.0 -0.0 -94.7358 4.4677267 -93.024086 -1.5266662E-13 3.4150944E-6 5.1226416E-6
0.0 180.0 0.0 -0.0 0.0 -0.0 -0.0 0.0 -0.0 -156.74905 -66.84976 46.38185 4.268868E-7 2.5613203E-6 -2.5613203E-6 90.89906 64.18551 -47.63731 -121.89951 25.574686 -38.422222 10.154432 13.760886 -27.855198 0.0 -8.537737E-7 0.0 0.0 -8.537737E-7 0.0 0.0 -8.537737E-7 0.0 -69.33173 -30.87556 41.76684 -0.0 0.0 -0.0 -94.7358 4.4677267 -93.024086 -1.5266662E-13 3.4150944E-6 5.1226416E-6
0.0 180.0 0.0 -0.0 0.0 -0.0 -0.0 0.0 -0.0 -156.74905 -66.84976 46.38185 4.268868E-7 2.5613203E-6 -2.5613203E-6 90.89906 64.18551 -47.63731 -121.89951 25.574686 -38.422222 10.154432 13.760886 -27.855198 0.0 -8.537737E-7 0.0 0.0 -8.537737E-7 0.0 0.0 -8.537737E-7 0.0 -69.33173 -30.87556 41.76684 -0.0 0.0 -0.0 -94.7358 4.4677267 -93.024086 -1.5266662E-13 3.4150944E-6 5.1226416E-6
0.0 180.0 0.0 -0.0 0.0 -0.0 -0.0 0.0 -0.0 -156.74905 -66.84976 46.38185 4.268868E-7 2.5613203E-6 -2.5613203E-6 90.89906 64.18551 -47.63731 -121.89951 25.574686 -38.422222 10.154432 13.760886 -27.855198 0.0 -8.537737E-7 0.0 0.0 -8.537737E-7 0.0 0.0 -8.537737E-7 0.0 -69.33173 -30.87556 41.76684 -0.0 0.0 -0.0 -94.7358 4.4677267 -93.024086 -1.5266662E-13 3.4150944E-6 5.1226416E-6
0.0 180.0 0.0 -0.0 0.0 -0.0 -0.0 0.0 -0.0 -156.74905 -66.84976 46.38185 4.268868E-7 2.5613203E-6 -2.5613203E-6 90.89906 64.18551 -47.63731 -121.89951 25.574686 -38.422222 10.154432 13.760886 -27.855198 0.0 -8.537737E-7 0.0 0.0 -8.537737E-7 0.0 0.0 -8.537737E-7 0.0 -69.33173 -30.87556 41.76684 -0.0 0.0 -0.0 -94.7358 4.4677267 -93.024086 -1.5266662E-13 3.4150944E-6 5.1226416E-6
0.0 180.0 0.0 -0.0 0.0 -0.0 -0.0 0.0 -0.0 -156.74905 -66.84976 46.38185 4.268868E-7 2.5613203E-6 -2.5613203E-6 90.89906 64.18551 -47.63731 -121.89951 25.574686 -38.422222 10.154432 13.760886 -27.855198 0.0 -8.537737E-7 0.0 0.0 -8.537737E-7 0.0 0.0 -8.537737E-7 0.0 -69.33173 -30.87556 41.76684 -0.0 0.0 -0.0 -94.7358 4.4677267 -93.024086 -1.5266662E-13 3.4150944E-6 5.1226416E-6
0.0 180.0 0.0 -0.0 0.0 -0.0 -0.0 0.0 -0.0 -156.74905 -66.84976 46.38185 4.268868E-7 2.5613203E-6 -2.5613203E-6 90.89906 64.18551 -47.63731 -121.89951 25.574686 -38.422222 10.154432 13.760886 -27.855198 0.0 -8.537737E-7 0.0 0.0 -8.537737E-7 0.0 0.0 -8.537737E-7 0.0 -69.33173 -30.87556 41.76684 -0.0 0.0 -0.0 -94.7358 4.4677267 -93.024086 -1.5266662E-13 3.4150944E-6 5.1226416E-6
0.0 180.0 0.0 -0.0 0.0 -0.0 -0.0 0.0 -0.0 -156.74905 -66.84976 46.38185 4.268868E-7 2.5613203E-6 -2.5613203E-6 90.89906 64.18551 -47.63731 -121.89951 25.574686 -38.422222 10.154432 13.760886 -27.855198 0.0 -8.537737E-7 0.0 0.0 -8.537737E-7 0.0 0.0 -8.537737E-7 0.0 -69.33173 -30.87556 41.76684 -0.0 0.0 -0.0 -94.7358 4.4677267 -93.024086 -1.5266662E-13 3.4150944E-6 5.1226416E-6
0.0 180.0 0.0 -0.0 0.0 -0.0 -0.0 0.0 -0.0 -156.74905 -66.84976 46.38185 4.268868E-7 2.5613203E-6 -2.5613203E-6 90.88445 64.19232 -47.636364 -121.88715 25.564259 -38.429268 10.154432 13.760886 -27.855198 0.0 -8.537737E-7 0.0 0.0 -8.537737E-7 0.0 0.0 -8.537737E-7 0.0 -69.33173 -30.87556 41.76684 -0.0 0.0 -0.0 -94.7358 4.4677267 -93.024086 -1.5266662E-13 3.4150944E-6 5.1226416E-6
0.0 180.0 0.0 -0.0 0.0 -0.0 -0.0 0.0 -0.0 -156.74905 -66.84976 46.38185 4.268868E-7 2.5613203E-6 -2.5613203E-6 90.88445 64.19232 -47.636364 -121.88715 25.564259 -38.429268 10.154432 13.760886 -27.855198 0.0 -8.537737E-7 0.0 0.0 -8.537737E-7 0.0 0.0 -8.537737E-7 0.0 -69.33173 -30.87556 41.76684 -0.0 0.0 -0.0 -94.7358 4.4677267 -93.024086 -1.5266662E-13 3.4150944E-6 5.1226416E-6
0.0 180.0 0.0 -0.0 0.0 -0.0 -0.0 0.0 -0.0 -156.74905 -66.84976 46.38185 4.268868E-7 2.5613203E-6 -2.5613203E-6 90.88445 64.19232 -47.636364 -121.88715 25.564259 -38.429268 10.154432 13.760886 -27.855198 0.0 -8.537737E-7 0.0 0.0 -8.537737E-7 0.0 0.0 -8.537737E-7 0.0 -69.33173 -30.87556 41.76684 -0.0 0.0 -0.0 -94.7358 4.4677267 -93.024086 -1.5266662E-13 3.4150944E-6 5.1226416E-6
0.0 180.0 0.0 -0.0 0.0 -0.0 -0.0 0.0 -0.0 -156.74905 -66.84976 46.38185 4.268868E-7 2.5613203E-6 -2.5613203E-6 90.88445 64.19232 -47.636364 -121.88715 25.564259 -38.429268 10.154432 13.760886 -27.855198 0.0 -8.537737E-7 0.0 0.0 -8.537737E-7 0.0 0.0 -8.537737E-7 0.0 -69.33173 -30.87556 41.76684 -0.0 0.0 -0.0 -94.7358 4.4677267 -93.024086 -1.5266662E-13 3.4150944E-6 5.1226416E-6
0.0 180.0 0.0 -0.0 0.0 -0.0 -0.0 0.0 -0.0 -156.74905 -66.84976 46.38185 4.268868E-7 2.5613203E-6 -2.5613203E-6 90.88445 64.19232 -47.636364 -121.88715 25.564259 -38.429268 10.154432 13.760886 -27.855198 0.0 -8.537737E-7 0.0 0.0 -8.537737E-7 0.0 0.0 -8.537737E-7 0.0 -69.33173 -30.87556 41.76684 -0.0 0.0 -0.0 -94.7358 4.4677267 -93.024086 -1.5266662E-13 3.4150944E-6 5.1226416E-6
0.0 180.0 0.0 -0.0 0.0 -0.0 -0.0 0.0 -0.0 -156.74905 -66.84976 46.38185 4.268868E-7 2.5613203E-6 -2.5613203E-6 90.88445 64.19232 -47.636364 -121.88715 25.564259 -38.429268 10.154432 13.760886 -27.855198 0.0 -8.537737E-7 0.0 0.0 -8.537737E-7 0.0 0.0 -8.537737E-7 0.0 -69.33173 -30.87556 41.76684 -0.0 0.0 -0.0 -94.7358 4.4677267 -93.024086 -1.5266662E-13 3.4150944E-6 5.1226416E-6
0.0 180.0 0.0 -0.0 0.0 -0.0 -0.0 0.0 -0.0 -156.74905 -66.84976 46.38185 4.268868E-7 2.5613203E-6 -2.5613203E-6 90.88445 64.19232 -47.636364 -121.88715 25.564259 -38.429268 10.154432 13.760886 -27.855198 0.0 -8.537737E-7 0.0 0.0 -8.537737E-7 0.0 0.0 -8.537737E-7 0.0 -69.33173 -30.87556 41.76684 -0.0 0.0 -0.0 -94.7358 4.4677267 -93.024086 -1.5266662E-13 3.4150944E-6 5.1226416E-6
0.0 180.0 0.0 -0.0 0.0 -0.0 -0.0 0.0 -0.0 -156.74905 -66.84976 46.38185 4.268868E-7 2.5613203E-6 -2.5613203E-6 90.88445 64.19232 -47.636364 -121.88715 25.564259 -38.429268 10.154432 13.760886 -27.855198 0.0 -8.537737E-7 0.0 0.0 -8.537737E-7 0.0 0.0 -8.537737E-7 0.0 -69.33173 -30.87556 41.76684 -0.0 0.0 -0.0 -94.7358 4.4677267 -93.024086 -1.5266662E-13 3.4150944E-6 5.1226416E-6
0.0 180.0 0.0 -0.0 0.0 -0.0 -0.0 0.0 -0.0 -156.74905 -66.84976 46.38185 4.268868E-7 2.5613203E-6 -2.5613203E-6 90.88445 64.19232 -47.636364 -121.88715 25.564259 -38.429268 10.154432 13.760886 -27.855198 0.0 -8.537737E-7 0.0 0.0 -8.537737E-7 0.0 0.0 -8.537737E-7 0.0 -69.33173 -30.87556 41.76684 -0.0 0.0 -0.0 -94.7358 4.4677267 -93.024086 -1.5266662E-13 3.4150944E-6 5.1226416E-6
0.0 180.0 0.0 -0.0 0.0 -0.0 -0.0 0.0 -0.0 -156.74905 -66.84976 46.38185 4.268868E-7 2.5613203E-6 -2.5613203E-6 90.88445 64.19232 -47.636364 -121.88715 25.564259 -38.429268 10.154432 13.760886 -27.855198 0.0 -8.537737E-7 0.0 0.0 -8.537737E-7 0.0 0.0 -8.537737E-7 0.0 -69.33173 -30.87556 41.76684 -0.0 0.0 -0.0 -94.7358 4.4677267 -93.024086 -1.5266662E-13 3.4150944E-6 5.1226416E-6
0.0 180.0 0.0 -0.0 0.0 -0.0 -0.0 0.0 -0.0 -156.74905 -66.84976 46.38185 4.268868E-7 2.5613203E-6 -2.5613203E-6 90.88445 64.19232 -47.636364 -121.88715 25.564259 -38.429268 10.154432 13.760886 -27.855198 0.0 -8.537737E-7 0.0 0.0 -8.537737E-7 0.0 0.0 -8.537737E-7 0.0 -69.33173 -30.87556 41.76684 -0.0 0.0 -0.0 -94.7358 4.4677267 -93.024086 -1.5266662E-13 3.4150944E-6 5.1226416E-6
